<?xml version="1.0" encoding="utf-8"?>
<!-- Generator: Adobe Illustrator 23.0.2, SVG Export Plug-In . SVG Version: 6.00 Build 0)  -->
<svg version="1.1" id="Layer_1" xmlns="http://www.w3.org/2000/svg" xmlns:xlink="http://www.w3.org/1999/xlink" x="0px" y="0px"
	 viewBox="0 0 887.88 134" style="enable-background:new 0 0 887.88 134;" xml:space="preserve">
<style type="text/css">
	.st0{fill:#00AEEF;}
</style>
<g>
	<g>
		<g>
			<path class="st0" d="M856.94,22.15h-4.68v12.74h-3.15V22.15h-4.62V19.6h12.45V22.15z"/>
			<path class="st0" d="M862.85,19.6l3.93,11.09l3.91-11.09h4.14v15.29h-3.16v-4.18l0.32-7.21l-4.13,11.39h-2.16l-4.12-11.38
				l0.32,7.2v4.18h-3.15V19.6H862.85z"/>
		</g>
		<g>
			<path class="st0" d="M859.74,49.58c-12.22,0-22.17-9.95-22.17-22.17s9.95-22.17,22.17-22.17s22.17,9.95,22.17,22.17
				S871.97,49.58,859.74,49.58z M859.74,6.73c-11.4,0-20.68,9.28-20.68,20.68s9.28,20.68,20.68,20.68c11.4,0,20.68-9.28,20.68-20.68
				S871.14,6.73,859.74,6.73z"/>
		</g>
	</g>
	<g>
		<path class="st0" d="M808.85,58.81v62.92c0,3.86-3.13,6.99-6.99,6.99h-13.99V65.81h-17.44c-7.73,0-13.99-6.26-13.99-13.99v-6.99
			h38.42C802.58,44.82,808.85,51.09,808.85,58.81z"/>
		<path class="st0" d="M840.32,44.82v20.98h-27.11v-6.99c0-5.6-2.52-10.62-6.48-13.99H840.32z"/>
	</g>
	<path class="st0" d="M745.37,44.79h-6.99l0,0c-3.86,0-6.99,3.13-6.99,6.99v0v14.06v5.83v30.21v5.83v14.06v6.99h6.99h6.99l0,0
		c3.86,0,6.99-3.13,6.99-6.99v0v-14.06v-5.83V71.67v-5.83V51.78v-6.99H745.37z"/>
	<g>
		<path class="st0" d="M636.35,48.13l20.59,32.97c0.69,1.11,1.06,2.39,1.06,3.7v37.61l-25.62-41.03v40.33
			c0,3.86-3.13,6.99-6.99,6.99h-13.99V44.84h19.02C632.83,44.84,635.07,46.08,636.35,48.13z"/>
		<path class="st0" d="M684.8,44.84v83.87h-20.28c-0.39,0-0.7-0.31-0.7-0.7V51.83c0-3.86,3.13-6.99,6.99-6.99H684.8z"/>
	</g>
	<path class="st0" d="M546.49,107.78h28.07l-19.43-33.99l-29.37,51.45c-1.24,2.18-3.56,3.53-6.07,3.53h-16.97l45.93-80.45
		c1.24-2.18,3.56-3.53,6.07-3.53h0.81c2.51,0,4.83,1.34,6.07,3.52l34,59.47l1.56,2.72l10.44,18.26h-77.14l9.97-17.46
		C541.66,109.13,543.98,107.78,546.49,107.78z"/>
	<g>
		<path class="st0" d="M498.63,83.28v6.99c0,3.86-3.13,6.99-6.99,6.99h-45.42v10.46h45.42c3.86,0,6.99,3.13,6.99,6.99v13.99h-59.41
			c-7.73,0-13.99-6.26-13.99-13.99V76.29h66.4C495.5,76.29,498.63,79.42,498.63,83.28z"/>
		<path class="st0" d="M498.63,44.84v13.99c0,3.86-3.13,6.99-6.99,6.99h-66.4v-6.99c0-7.73,6.26-13.99,13.99-13.99H498.63z"/>
	</g>
	<path class="st0" d="M419.09,60.83c-0.84-1.99-1.92-3.86-3.21-5.57c-0.73-0.97-1.53-1.89-2.4-2.76c-2.4-2.4-5.21-4.29-8.33-5.61
		c-3.14-1.33-6.46-2.02-9.88-2.06h-52.8v13.99c0,3.86,3.13,6.99,6.99,6.99h45.34c0.04,0,0.09,0,0.14,0c2.89,0,5.23,2.35,5.23,5.24
		c0,2.89-2.35,5.23-5.23,5.23c-0.01,0-0.03,0-0.04,0v0h-52.43v52.45h13.99c3.86,0,6.99-3.13,6.99-6.99V97.25h31.49
		c3.53,0,6.97-0.69,10.21-2.07c3.12-1.32,5.93-3.21,8.33-5.61c0.87-0.87,1.67-1.79,2.4-2.76c1.29-1.71,2.37-3.58,3.21-5.57
		c1.37-3.24,2.06-6.67,2.06-10.21C421.16,67.5,420.46,64.07,419.09,60.83z"/>
	<path class="st0" d="M306.63,128.71H285.7c-4.24,0-8.37-0.83-12.25-2.48c-3.75-1.59-7.11-3.85-10-6.74
		c-2.89-2.89-5.15-6.25-6.74-10c-1.64-3.89-2.48-8.01-2.48-12.25V76.31c0-4.24,0.83-8.37,2.48-12.25c1.59-3.75,3.85-7.11,6.74-10
		c2.89-2.89,6.25-5.15,10-6.74c3.89-1.64,8.01-2.48,12.25-2.48h20.93c4.24,0,8.37,0.83,12.25,2.48c3.75,1.59,7.11,3.85,10,6.74
		c2.89,2.89,5.15,6.25,6.74,10c1.64,3.89,2.48,8.01,2.48,12.25v20.92c0,4.24-0.83,8.37-2.48,12.25c-1.59,3.75-3.85,7.11-6.74,10
		c-2.89,2.89-6.25,5.15-10,6.74C314.99,127.88,310.87,128.71,306.63,128.71z M285.7,65.82c-5.78,0-10.49,4.71-10.49,10.49v20.92
		c0,5.78,4.71,10.49,10.49,10.49h20.93c5.78,0,10.49-4.71,10.49-10.49V76.31c0-5.78-4.71-10.49-10.49-10.49H285.7z"/>
	<path class="st0" d="M231.01,107.71l-9.86-10.46h2.9c0.26,0,0.52,0,0.78-0.01c3.26-0.09,6.43-0.78,9.43-2.05
		c3.12-1.32,5.93-3.21,8.33-5.61c0.87-0.87,1.67-1.79,2.4-2.76c1.29-1.71,2.37-3.58,3.21-5.57c0.68-1.61,1.2-3.27,1.54-4.97
		c0.35-1.71,0.52-3.46,0.52-5.23c0-1.77-0.17-3.52-0.52-5.23c-0.34-1.7-0.86-3.36-1.54-4.97c-0.84-1.99-1.92-3.86-3.21-5.57
		c-0.73-0.97-1.53-1.89-2.4-2.76c-2.4-2.4-5.21-4.29-8.33-5.61c-3.14-1.33-6.46-2.02-9.88-2.06h-52.8v13.99
		c0,3.86,3.13,6.99,6.99,6.99h45.34c0.04,0,0.09,0,0.13,0s0.09,0,0.14,0c2.81,0.07,5.08,2.37,5.1,5.19c0.02,2.9-2.41,5.28-5.32,5.28
		h-52.39v52.45h13.99c3.86,0,6.99-3.13,6.99-6.99V97.52l9.61,10.2l17.71,18.78c1.32,1.4,3.16,2.2,5.09,2.2h25.81L231.01,107.71z"/>
	<g>
		<path class="st0" d="M167.46,44.81v41.95c0,5.66-1.11,11.16-3.3,16.35c-2.11,5-5.14,9.49-8.99,13.34
			c-3.85,3.85-8.34,6.88-13.34,8.99c-5.18,2.19-10.68,3.3-16.35,3.3c-5.66,0-11.16-1.11-16.35-3.3c-5-2.11-9.49-5.14-13.34-8.99
			c-3.85-3.85-6.88-8.34-8.99-13.34c-2.12-5.02-3.23-10.34-3.3-15.82V44.81h13.99c3.86,0,6.99,3.13,6.99,6.99v34.63
			c0,0.11,0,0.22,0,0.33c0,0.11,0,0.22,0,0.33c0.17,11.43,9.53,20.68,21,20.68c11.58,0,21.01-9.42,21.01-21.01V51.8
			c0-3.86,3.13-6.99,6.99-6.99H167.46z"/>
		<path class="st0" d="M135.8,44.81L135.8,44.81l-20.98,0v0h-2.06c1.27,1.27,2.06,3.02,2.06,4.96v2.49h0v3.14v21.34v10.59
			c0,5.79,4.7,10.49,10.49,10.49h0.07c5.76,0,10.42-4.67,10.42-10.42V76.8V55.39v-5.64c0-1.93,0.79-3.69,2.06-4.95H135.8z"/>
	</g>
	<g>
		<path class="st0" d="M79.37,83.28v6.99c0,3.86-3.13,6.99-6.99,6.99H26.95v10.46h45.42c3.86,0,6.99,3.13,6.99,6.99v13.99H19.96
			c-7.73,0-13.99-6.26-13.99-13.99V76.29h66.4C76.23,76.29,79.37,79.42,79.37,83.28z"/>
		<path class="st0" d="M79.37,44.84v13.99c0,3.86-3.13,6.99-6.99,6.99H5.97v-6.99c0-7.73,6.26-13.99,13.99-13.99H79.37z"/>
	</g>
</g>
</svg>
